<svg xmlns="http://www.w3.org/2000/svg" width="112.079" height="40.128" viewBox="0 0 112.079 40.128">
    <defs>
        <style>
            .cls-1{fill:#ed87c9;fill-rule:evenodd}
        </style>
    </defs>
    <g id="그룹_2471" transform="translate(-240.5 1344.305)">
        <path id="패스_2435" d="M342.258-1344.05a5.966 5.966 0 0 0-3.4 3.477l-.365.921-.048 17.415-.048 17.431h9.382v-7.985c0-5.636-.063-8.827-.238-10.906-.222-2.762-.619-6.1-.826-6.985-.175-.73.143-.191.9 1.572.667 1.54 1.651 3.461 2.746 5.413.4.7 3.35 5.985 6.382 11.43 3.4 6.112 4.35 7.319 6.239 7.874a6.156 6.156 0 0 0 3.556-.1 5.142 5.142 0 0 0 2.524-2.381l.381-.714.048-17.987.032-17.971h-9.208v7.7a126.546 126.546 0 0 0 .556 14.51c.111.81-.127.429-.794-1.254-.746-1.905-1.953-4.223-5.874-11.271-3.461-6.239-4.223-7.446-5.429-8.684a5.383 5.383 0 0 0-4.175-1.746 5.446 5.446 0 0 0-2.341.241z" class="cls-1" transform="translate(-82.358)"/>
        <path id="패스_2436" d="M240.5-1320.132v19.368h9.684v-38.736H240.5z" class="cls-1" transform="translate(0 -4.042)"/>
        <path id="패스_2437" d="M582.233-1339.246c-6.049.73-9.732 2.318-13.145 5.652a17.958 17.958 0 0 0-5.588 13.494 18.356 18.356 0 0 0 3.223 10.684 21.577 21.577 0 0 0 6.477 5.858c3.191 1.746 8.223 2.794 13.4 2.794h2.143v-8.97l-2.111-.032c-5.175-.1-8.319-1.1-10.589-3.381a8.893 8.893 0 0 1-2.651-6.35 9.259 9.259 0 0 1 5.239-9.43 16.5 16.5 0 0 1 7.795-1.556l2.318-.016v-9l-2.334.016c-1.304.015-3.177.11-4.177.237z" class="cls-1" transform="translate(-261.722 -4.042)"/>
        <path id="패스_2438" d="M748.464-1325.339c.063 15.32.063 15.193.937 17.606 1.381 3.763 4.223 5.89 8.954 6.715a41.8 41.8 0 0 0 6.461.254h5.032v-8.859l-4.413-.048-4.429-.063-.937-.476a2.571 2.571 0 0 1-1.413-1.413l-.476-.953-.048-13.462-.048-13.462H748.4z" class="cls-1" transform="translate(-417.269 -4.042)"/>
    </g>
</svg>
