<svg xmlns="http://www.w3.org/2000/svg" width="516.493" height="664.501" viewBox="0 0 516.493 664.501">
    <defs>
        <style>
            .cls-1{fill:#e0e0e0}.cls-2{fill:#fbfbfb}.cls-3{fill:#f0f0f0}.cls-5{fill:#bababa}.cls-6{fill:#e6e6e6}.cls-8{fill:#b7b7b7}.cls-9{fill:#d6d6d6}.cls-11{fill:#fff}
        </style>
    </defs>
    <g id="그룹_2476" transform="translate(0 -266)">
        <g id="그룹_2463" transform="translate(75.926 -171.175)">
            <path id="패스_3989" d="M30.585 1034.978a57.568 57.568 0 0 1-57.568-57.568c0-30.087 23.11-99.275 52.559-106.536 4.811-3.541 9.869-5.586 15.092-5.586 9.131 0 17.763 6.225 25.433 15.843v-25.956H62.33a6 6 0 0 1-6-6v-27a6 6 0 0 1 6-6h3.77v-20h-3.77a6 6 0 0 1-6-6v-27a6 6 0 0 1 6-6h25.257a6 6 0 0 1 6 6v5.775h20v-4.775a6 6 0 0 1 6-6h.249v-3.247c.005-2.1 3.094-3.739 7.034-3.739h3.645v-8.014h-10.928a6 6 0 0 1-6-6v-27a6 6 0 0 1 6-6h10.928v-15h-10.928a6 6 0 0 1-6-6v-27a6 6 0 0 1 6-6h10.928v-15h-10.928a6 6 0 0 1-6-6v-27a6 6 0 0 1 6-6h27a6 6 0 0 1 6 6v18.2h10.1v-11.9a12.876 12.876 0 0 1 12.844-12.835h12.055V457.175a19.022 19.022 0 0 0-19-19H-55.926a19.021 19.021 0 0 0-19 19v634H40.668v-57.1a57.841 57.841 0 0 1-10.083.903zm83-540.8a6 6 0 0 1 6-6h27a6 6 0 0 1 6 6v27a6 6 0 0 1-6 6h-27a6 6 0 0 1-6-6zm0 54a6 6 0 0 1 6-6h27a6 6 0 0 1 6 6v27a6 6 0 0 1-6 6h-27a6 6 0 0 1-6-6zm-57.257-54a6 6 0 0 1 6-6h25.259a6 6 0 0 1 6 6v27a6 6 0 0 1-6 6H62.33a6 6 0 0 1-6-6zm0 54a6 6 0 0 1 6-6h25.259a6 6 0 0 1 6 6v27a6 6 0 0 1-6 6H62.33a6 6 0 0 1-6-6zm0 54a6 6 0 0 1 6-6h25.259a6 6 0 0 1 6 6v27a6 6 0 0 1-6 6H62.33a6 6 0 0 1-6-6zm0 54a6 6 0 0 1 6-6h25.259a6 6 0 0 1 6 6v27a6 6 0 0 1-6 6H62.33a6 6 0 0 1-6-6zm-57.153-162a6 6 0 0 1 6-6h25a6 6 0 0 1 6 6v27a6 6 0 0 1-6 6h-25a6 6 0 0 1-6-6zm0 54a6 6 0 0 1 6-6h25a6 6 0 0 1 6 6v27a6 6 0 0 1-6 6h-25a6 6 0 0 1-6-6zm0 54a6 6 0 0 1 6-6h25a6 6 0 0 1 6 6v27a6 6 0 0 1-6 6h-25a6 6 0 0 1-6-6zm0 54a6 6 0 0 1 6-6h25a6 6 0 0 1 6 6v27a6 6 0 0 1-6 6h-25a6 6 0 0 1-6-6zm0 107a6 6 0 0 1 6-6h25a6 6 0 0 1 6 6v27a6 6 0 0 1-6 6h-25a6 6 0 0 1-6-6zm0 59a6 6 0 0 1 6-6h25a6 6 0 0 1 6 6v27a6 6 0 0 1-6 6h-25a6 6 0 0 1-6-6z" class="cls-1"/>
            <path id="패스_3990" d="M44.267 1033.328v57.847H66.1V1024.1q-2.554 1.26-5.247 2.272a57.188 57.188 0 0 1-16.586 6.956z" class="cls-1"/>
            <path id="패스_3991" d="M-75.926 1091.177v1h1a1 1 0 0 1-1-1z" class="cls-1"/>
            <path id="패스_3992" d="M-55.926 437.175h224.514a20.021 20.021 0 0 1 19.906 18.157 20 20 0 0 0-19.907-18.157H-55.926a20 20 0 0 0-19.9 17.958 20.029 20.029 0 0 1 19.9-17.958z" class="cls-1"/>
            <rect id="사각형_1557" width="37.257" height="39" class="cls-2" rx="6" transform="translate(56.33 488.175)"/>
            <rect id="사각형_1558" width="37.257" height="39" class="cls-2" rx="6" transform="translate(56.33 650.175)"/>
            <rect id="사각형_1559" width="39" height="39" class="cls-2" rx="6" transform="translate(113.587 488.175)"/>
            <path id="패스_3993" d="M119.587 650.175a6 6 0 0 0-6 6v27a6 6 0 0 0 6 6h10.928v-39z" class="cls-3"/>
            <rect id="사각형_1560" width="37" height="39" class="cls-2" rx="6" transform="translate(-.823 488.175)"/>
            <rect id="사각형_1561" width="37" height="39" class="cls-2" rx="6" transform="translate(-.823 650.175)"/>
            <rect id="사각형_1562" width="37.257" height="39" class="cls-2" rx="6" transform="translate(56.33 542.175)"/>
            <rect id="사각형_1563" width="39" height="39" class="cls-2" rx="6" transform="translate(113.587 542.175)"/>
            <path id="패스_3994" d="M119.587 704.175a6 6 0 0 0-6 6v27a6 6 0 0 0 6 6h10.928v-39z" class="cls-3"/>
            <rect id="사각형_1564" width="37" height="39" class="cls-2" rx="6" transform="translate(-.823 542.175)"/>
            <rect id="사각형_1565" width="37.257" height="39" class="cls-2" rx="6" transform="translate(56.33 596.175)"/>
            <path id="패스_3995" d="M78.945 768.95h14.642v-5.775a6 6 0 0 0-6-6H62.33a6 6 0 0 0-6 6v27a6 6 0 0 0 6 6h3.77v-18.624c.009-4.743 5.771-8.601 12.845-8.601z" class="cls-2"/>
            <rect id="사각형_1566" width="37" height="39" class="cls-2" rx="6" transform="translate(-.823 757.175)"/>
            <path id="패스_3996" d="M62.33 816.175a6 6 0 0 0-6 6v27a6 6 0 0 0 6 6h3.77v-39z" class="cls-3"/>
            <rect id="사각형_1567" width="37" height="39" class="cls-2" rx="6" transform="translate(-.823 816.175)"/>
            <path id="패스_3997" d="M142.859 620.372h9.728v-18.2a6 6 0 0 0-6-6h-27a6 6 0 0 0-6 6v27a6 6 0 0 0 6 6h10.928v-3.3c.008-6.346 5.53-11.494 12.344-11.5z" class="cls-2"/>
            <path id="패스_3998" d="M119.836 758.175h-.249a6 6 0 0 0-6 6v4.775h6.249z" class="cls-3"/>
            <rect id="사각형_1568" width="37" height="39" class="cls-2" rx="6" transform="translate(-.823 596.175)"/>
            <path id="패스_3999" fill="#dedede" d="M130.515 1079.954V752.189h-3.645c-3.553 0-6.031 1.444-6.034 2.74v15.021H78.945c-6.523 0-11.836 3.41-11.844 7.6v104.857c18.5 24.162 31.135 67.8 31.135 90.048a57.55 57.55 0 0 1-31.136 51.137v69.483c.008 4.191 5.321 7.6 11.844 7.6h91.635a12.915 12.915 0 0 1-7.616-9.214h-20.104c-6.814-.008-12.337-5.156-12.344-11.507z"/>
            <path id="패스_4000" d="M67.1 882.407V777.552c.008-4.192 5.321-7.6 11.844-7.6h41.891v-15.023c0-1.3 2.481-2.74 6.034-2.74h3.645v-1h-3.644c-3.94 0-7.029 1.642-7.034 3.739v14.022H78.945c-7.074 0-12.836 3.858-12.844 8.6v103.58c.335.421.669.844.999 1.277z" class="cls-5"/>
            <path id="패스_4001" d="M-16.9 972.455c0-26.554 18-83.563 42.474-101.581-29.449 7.261-52.559 76.449-52.559 106.536a57.526 57.526 0 0 0 67.651 56.67v-4.057A57.568 57.568 0 0 1-16.9 972.455z" class="cls-6"/>
            <path id="패스_4002" d="M44.267 1029.9v3.428a57.188 57.188 0 0 0 16.587-6.952 57.286 57.286 0 0 1-16.587 3.524z" class="cls-6"/>
            <path id="패스_4003" fill="#eee" d="M98.238 972.455c0-22.249-12.64-65.886-31.135-90.048-.331-.433-.665-.856-1-1.276-7.67-9.618-16.3-15.843-25.433-15.843-5.223 0-10.281 2.045-15.092 5.586C1.1 888.892-16.9 945.9-16.9 972.455a57.568 57.568 0 0 0 57.566 57.568v-91.012a1.8 1.8 0 0 1 1.8-1.8 1.8 1.8 0 0 1 1.8 1.8v20.148L64.724 938.7a1.8 1.8 0 0 1 2.543 2.544l-23 23v65.656a57.286 57.286 0 0 0 16.587-3.524q2.691-1.008 5.247-2.272c.337-.166.668-.34 1-.512a57.55 57.55 0 0 0 31.137-51.137z"/>
            <path id="패스_4004" d="M44.267 1091.175V964.246l23-23a1.8 1.8 0 0 0-2.543-2.544l-20.456 20.457v-20.148a1.8 1.8 0 0 0-1.8-1.8 1.8 1.8 0 0 0-1.8 1.8v160.364a1.8 1.8 0 0 0 1.8 1.8 1.8 1.8 0 0 0 1.8-1.8v-8.2z" class="cls-8"/>
            <path id="패스_4005" d="M142.859 620.372c-6.814.006-12.336 5.154-12.344 11.506v448.076c.007 6.351 5.53 11.5 12.344 11.506h20.105a12.85 12.85 0 0 1-.275-2.62V620.372h-19.83z" class="cls-9"/>
            <path id="패스_4006" fill="#e2e2e2" d="M294.62 596.633h-41.89v-22.608c0-2.442-2.712-4.429-6.036-4.429h-23.235c-3.327 0-6.035 1.99-6.035 4.429v22.608h-41.891a11.874 11.874 0 0 0-11.844 11.836v480.37a11.873 11.873 0 0 0 11.847 11.835H294.62a11.873 11.873 0 0 0 11.844-11.836V929.012a66.566 66.566 0 0 1-14.873-42.4c0-15.918 5.574-41.261 14.873-64.937V608.468a11.872 11.872 0 0 0-11.844-11.835zm-6.663 62.673v42.116a3.635 3.635 0 0 1-3.631 3.631h-27.593a3.637 3.637 0 0 1-3.631-3.631v-42.116a3.635 3.635 0 0 1 3.631-3.631h27.593a3.634 3.634 0 0 1 3.631 3.631zm-88.589 307.881a3.636 3.636 0 0 1 3.632-3.631h27.593a3.635 3.635 0 0 1 3.631 3.631v42.113a3.634 3.634 0 0 1-3.631 3.63H203a3.635 3.635 0 0 1-3.631-3.631zm31.224-31.224H203a3.635 3.635 0 0 1-3.631-3.631v-42.115a3.635 3.635 0 0 1 3.631-3.631h27.593a3.634 3.634 0 0 1 3.631 3.631v42.116a3.634 3.634 0 0 1-3.632 3.63zm0-76.969H203a3.635 3.635 0 0 1-3.631-3.631v-42.116a3.635 3.635 0 0 1 3.631-3.631h27.593a3.635 3.635 0 0 1 3.631 3.631v42.116a3.635 3.635 0 0 1-3.632 3.631zm0-76.971H203a3.635 3.635 0 0 1-3.631-3.631v-42.116a3.636 3.636 0 0 1 3.631-3.631h27.593a3.635 3.635 0 0 1 3.631 3.631v42.116a3.634 3.634 0 0 1-3.632 3.631zm0-76.97H203a3.636 3.636 0 0 1-3.631-3.631v-42.116a3.635 3.635 0 0 1 3.631-3.631h27.593a3.634 3.634 0 0 1 3.631 3.631v42.116a3.635 3.635 0 0 1-3.632 3.631zM253.1 932.332v-42.115a3.635 3.635 0 0 1 3.631-3.631h27.593a3.634 3.634 0 0 1 3.631 3.631v42.116a3.634 3.634 0 0 1-3.631 3.63h-27.591a3.636 3.636 0 0 1-3.633-3.631zm31.224-73.338h-27.591a3.635 3.635 0 0 1-3.631-3.631v-42.116a3.636 3.636 0 0 1 3.631-3.631h27.593a3.635 3.635 0 0 1 3.631 3.631v42.116a3.635 3.635 0 0 1-3.631 3.631zm0-76.971h-27.591a3.635 3.635 0 0 1-3.631-3.631v-42.116a3.637 3.637 0 0 1 3.631-3.631h27.593a3.635 3.635 0 0 1 3.631 3.631v42.116a3.634 3.634 0 0 1-3.631 3.631zm3.845 316.28h-28V969.175a6 6 0 0 1 6-6h16a6 6 0 0 1 6 6z"/>
            <path id="패스_4007" d="M306.464 929.012v159.826a11.873 11.873 0 0 1-11.844 11.836H175.536a11.873 11.873 0 0 1-11.847-11.835v-480.37a11.874 11.874 0 0 1 11.844-11.836h41.891v-22.608c0-2.439 2.708-4.426 6.035-4.429h23.235c3.324 0 6.032 1.987 6.036 4.429v22.608h41.89a11.872 11.872 0 0 1 11.844 11.835v213.206q.492-1.256 1-2.5v-210.7a12.873 12.873 0 0 0-12.844-12.834h-40.89v-21.616c0-2.993-3.162-5.428-7.036-5.428h-23.235c-3.88 0-7.035 2.438-7.035 5.429v21.608h-27.836V457.175c0-.622-.038-1.235-.094-1.843a20.021 20.021 0 0 0-19.906-18.157H-55.926a20.029 20.029 0 0 0-19.9 17.958 20.245 20.245 0 0 0-.1 2.042v634a1 1 0 0 0 1 1h115.6v-1h-115.6v-634a19.021 19.021 0 0 1 19-19h224.514a19.022 19.022 0 0 1 19 19v138.458h-12.055a12.876 12.876 0 0 0-12.844 12.835v480.372a12.857 12.857 0 0 0 7.891 11.834H78.945c-6.523 0-11.836-3.41-11.844-7.6v-69.483c-.332.172-.663.346-1 .512v67.071H44.267v1H66.1v.9c.008 4.742 5.77 8.6 12.844 8.6H294.62a12.874 12.874 0 0 0 12.844-12.835V930.2c-.335-.4-.675-.786-1-1.188z" class="cls-5"/>
            <path id="패스_4008" d="M234.223 659.306a3.634 3.634 0 0 0-3.631-3.631H203a3.635 3.635 0 0 0-3.631 3.631v42.115a3.636 3.636 0 0 0 3.631 3.631h27.593a3.635 3.635 0 0 0 3.631-3.631z" class="cls-11"/>
            <path id="패스_4009" d="M256.733 655.675a3.635 3.635 0 0 0-3.631 3.631v42.115a3.637 3.637 0 0 0 3.631 3.631h27.593a3.635 3.635 0 0 0 3.631-3.631v-42.115a3.634 3.634 0 0 0-3.631-3.631z" class="cls-11"/>
            <path id="패스_4010" d="M234.223 736.276a3.635 3.635 0 0 0-3.631-3.631H203a3.636 3.636 0 0 0-3.631 3.631v42.115a3.635 3.635 0 0 0 3.631 3.631h27.593a3.634 3.634 0 0 0 3.631-3.631z" class="cls-11"/>
            <path id="패스_4011" d="M287.957 736.276a3.635 3.635 0 0 0-3.631-3.631h-27.593a3.637 3.637 0 0 0-3.631 3.631v42.115a3.635 3.635 0 0 0 3.631 3.631h27.593a3.634 3.634 0 0 0 3.631-3.631z" class="cls-11"/>
            <path id="패스_4012" d="M234.223 813.247a3.635 3.635 0 0 0-3.631-3.631H203a3.635 3.635 0 0 0-3.631 3.631v42.115a3.635 3.635 0 0 0 3.631 3.631h27.593a3.635 3.635 0 0 0 3.631-3.631z" class="cls-11"/>
            <path id="패스_4013" d="M287.957 813.247a3.635 3.635 0 0 0-3.631-3.631h-27.593a3.636 3.636 0 0 0-3.631 3.631v42.115a3.635 3.635 0 0 0 3.631 3.631h27.593a3.635 3.635 0 0 0 3.631-3.631z" class="cls-11"/>
            <path id="패스_4014" d="M234.223 890.217a3.634 3.634 0 0 0-3.631-3.631H203a3.635 3.635 0 0 0-3.631 3.631v42.115a3.635 3.635 0 0 0 3.631 3.631h27.593a3.634 3.634 0 0 0 3.631-3.63z" class="cls-11"/>
            <path id="패스_4015" d="M284.326 935.963a3.634 3.634 0 0 0 3.631-3.63v-42.116a3.634 3.634 0 0 0-3.631-3.631h-27.593a3.635 3.635 0 0 0-3.631 3.631v42.115a3.636 3.636 0 0 0 3.631 3.631z" class="cls-11"/>
            <path id="패스_4016" d="M203 1012.933h27.593a3.634 3.634 0 0 0 3.631-3.63v-42.116a3.635 3.635 0 0 0-3.631-3.631H203a3.636 3.636 0 0 0-3.631 3.631v42.113a3.635 3.635 0 0 0 3.631 3.633z" class="cls-11"/>
            <path id="패스_4017" d="M282.171 963.175h-16a6 6 0 0 0-6 6V1098.3h28V969.175a6 6 0 0 0-6-6z" class="cls-11"/>
            <path id="패스_4018" d="M358.074 953.828a66.959 66.959 0 0 1-16.859-2.244 66.406 66.406 0 0 0 17.225 6.652v-4.415c-.122 0-.24.008-.366.007z" class="cls-9"/>
            <path id="패스_4019" d="M375.672 768.435c28.569 20.679 49.619 87.231 49.619 118.176v.734a66.842 66.842 0 0 1-62.672 66.337v5.4a66.841 66.841 0 0 0 77.946-65.555v-.735c0-36.245-28.878-121.348-64.893-124.357z" class="cls-9"/>
            <path id="패스_4020" fill="#eaeaea" d="M358.44 953.821v-93.409a2.139 2.139 0 1 1 4.178 0v23.763l23.755-24.575a2.041 2.041 0 0 1 2.886-.069c.023.022.046.045.068.069a2.211 2.211 0 0 1 0 3.056l-26.708 27.626v63.4a66.842 66.842 0 0 0 62.672-66.337v-.734c0-30.945-21.05-97.5-49.619-118.176-5.5-3.98-11.273-6.271-17.232-6.271-20.43 0-38.715 26.808-50.976 57.006q-.507 1.25-1 2.5c-9.3 23.676-14.873 49.019-14.873 64.937a66.566 66.566 0 0 0 14.873 42.4c.325.4.665.792 1 1.187a66.638 66.638 0 0 0 50.61 23.629c.126.006.244-.002.366-.002z"/>
            <path id="패스_4021" d="M362.619 890.285l26.708-27.626a2.211 2.211 0 0 0 0-3.056c-.022-.024-.045-.047-.068-.069a2.041 2.041 0 0 0-2.886.069l-23.755 24.572v-23.763a2.139 2.139 0 1 0-4.178 0v231.723a2.139 2.139 0 1 0 4.179-.005V890.285z" class="cls-8"/>
        </g>
    </g>
</svg>
