<svg xmlns="http://www.w3.org/2000/svg" width="676.793" height="619.502" viewBox="0 0 676.793 619.502">
    <defs>
        <style>
            .cls-1{fill:#e0e0e0}.cls-2{fill:#bababa}.cls-3{fill:#fbfbfb}.cls-4{fill:#f0f0f0}.cls-5{fill:#d6d6d6}.cls-6{fill:#eaeaea}.cls-7{fill:#b7b7b7}.cls-8{fill:#d8d8d8}.cls-10{fill:#fff}.cls-12{fill:#eee}
        </style>
    </defs>
    <g id="그룹_2464" transform="translate(156.076 -459.674)">
        <path id="패스_4022" d="M408.688 467.11a7.991 7.991 0 0 0-6.744-7.332 8 8 0 0 1 6.744 7.332z" class="cls-1"/>
        <path id="패스_4023" d="M339.717 467.674a8.005 8.005 0 0 1 6.811-7.9 8 8 0 0 0-6.812 7.9v8z" class="cls-1"/>
        <path id="패스_4024" d="M407.717 467.674a7.008 7.008 0 0 0-7-7h-53a7.008 7.008 0 0 0-7 7v8h67z" class="cls-1"/>
        <path id="패스_4025" d="M487.717 467.674a7.008 7.008 0 0 0-7-7h-12a7.008 7.008 0 0 0-7 7v8h26z" class="cls-1"/>
        <path id="패스_4026" d="M467.528 459.772a7.992 7.992 0 0 0-6.806 7.774 8 8 0 0 1 6.806-7.774z" class="cls-1"/>
        <path id="패스_4027" d="M488.688 467.11a7.991 7.991 0 0 0-6.744-7.332 8 8 0 0 1 6.744 7.332z" class="cls-1"/>
        <path id="패스_4028" d="M318.717 493.674v-10a8.005 8.005 0 0 1 6.811-7.9 8 8 0 0 0-6.812 7.9v10a7.979 7.979 0 0 0 .587 3 7.949 7.949 0 0 1-.586-3z" class="cls-1"/>
        <path id="패스_4029" d="M503.688 483.11a7.991 7.991 0 0 0-6.744-7.332 8 8 0 0 1 6.744 7.332z" class="cls-1"/>
        <path id="패스_4030" d="M495.717 476.674h-169a7.008 7.008 0 0 0-7 7v10a6.941 6.941 0 0 0 .685 3h180.315c.433 0 .856.038 1.283.065a6.948 6.948 0 0 0 .717-3.065v-10a7.008 7.008 0 0 0-7-7z" class="cls-1"/>
        <path id="패스_4031" d="M324.138 1061.552c-.044.377-.1.751-.162 1.122h31.018v-1.122z" class="cls-1"/>
        <path id="패스_4032" d="M293.717 516.674a20.028 20.028 0 0 1 17.957-19.9 20 20 0 0 0-17.958 19.9v155.851z" class="cls-1"/>
        <path id="패스_4034" d="M500.717 1063.674a19.993 19.993 0 0 0 19.987-19.755 20.015 20.015 0 0 1-19.987 19.755z" class="cls-1"/>
        <path id="패스_4036" d="M329.716 662.674a6 6 0 0 1 6-6h27a6 6 0 0 1 6 6v21.44c4.963 2.958 8.4 9.219 8.4 16.49v115.917a33.358 33.358 0 0 1 11.687 6.156 6 6 0 0 1 5.91-5h22a6 6 0 0 1 6 6v27a6 6 0 0 1-6 6h-3.023c13.04 26.383 21.246 59.155 21.246 78.049v.711a63.96 63.96 0 0 1-57.817 63.3v44.495c-.009 10.111-6.63 18.3-14.8 18.318h-3.324v1.122h28.944a29.887 29.887 0 0 1 58.145 0h54.633a19.022 19.022 0 0 0 19-19v-527a19.022 19.022 0 0 0-19-19h-187a19.021 19.021 0 0 0-19 19v155.853h10.721a18.681 18.681 0 0 1 16.134 9.763h8.144zm113-108a6 6 0 0 1 6-6h15a6 6 0 0 1 6 6v27a6 6 0 0 1-6 6h-15a6 6 0 0 1-6-6zm0 54a6 6 0 0 1 6-6h15a6 6 0 0 1 6 6v27a6 6 0 0 1-6 6h-15a6 6 0 0 1-6-6zm0 54a6 6 0 0 1 6-6h15a6 6 0 0 1 6 6v27a6 6 0 0 1-6 6h-15a6 6 0 0 1-6-6zm0 54a6 6 0 0 1 6-6h15a6 6 0 0 1 6 6v27a6 6 0 0 1-6 6h-15a6 6 0 0 1-6-6zm0 107a6 6 0 0 1 6-6h15a6 6 0 0 1 6 6v27a6 6 0 0 1-6 6h-15a6 6 0 0 1-6-6zm0 59a6 6 0 0 1 6-6h15a6 6 0 0 1 6 6v27a6 6 0 0 1-6 6h-15a6 6 0 0 1-6-6zm-54-329a6 6 0 0 1 6-6h22a6 6 0 0 1 6 6v27a6 6 0 0 1-6 6h-22a6 6 0 0 1-6-6zm0 54a6 6 0 0 1 6-6h22a6 6 0 0 1 6 6v27a6 6 0 0 1-6 6h-22a6 6 0 0 1-6-6zm0 54a6 6 0 0 1 6-6h22a6 6 0 0 1 6 6v27a6 6 0 0 1-6 6h-22a6 6 0 0 1-6-6zm0 54a6 6 0 0 1 6-6h22a6 6 0 0 1 6 6v27a6 6 0 0 1-6 6h-22a6 6 0 0 1-6-6zm-59-161a6 6 0 0 1 6-6h27a6 6 0 0 1 6 6v27a6 6 0 0 1-6 6h-27a6 6 0 0 1-6-6zm0 54a6 6 0 0 1 6-6h27a6 6 0 0 1 6 6v27a6 6 0 0 1-6 6h-27a6 6 0 0 1-6-6z" class="cls-1"/>
        <path id="패스_4037" d="M516.5 504.42q.525.676.993 1.4-.47-.72-.993-1.4z" class="cls-1"/>
        <path id="패스_4038" d="M511.37 499.764c.205.13.4.276.6.413-.2-.137-.394-.283-.6-.413z" class="cls-1"/>
        <path id="패스_4039" d="M509.861 498.9c.139.072.27.155.407.23-.137-.075-.268-.158-.407-.23z" class="cls-1"/>
        <path id="패스_4040" d="M506.613 497.572c.02.006.04.015.061.021-.021-.006-.041-.015-.061-.021z" class="cls-1"/>
        <path id="패스_4041" d="M512.794 500.753c.268.205.522.426.779.643-.258-.217-.511-.439-.779-.643z" class="cls-1"/>
        <path id="패스_4042" d="M508.274 498.167c.073.03.143.067.216.1-.073-.033-.142-.067-.216-.1z" class="cls-1"/>
        <path id="패스_4043" d="M514.129 501.863c.316.287.615.593.913.9-.298-.307-.596-.613-.913-.9z" class="cls-1"/>
        <path id="패스_4044" d="M503.071 496.824a7.99 7.99 0 0 0 .632-2.881 7.944 7.944 0 0 1-.635 2.88z" class="cls-1"/>
        <path id="패스_4045" d="M520.252 512.468c.117.543.2 1.1.276 1.655-.071-.558-.16-1.112-.276-1.655z" class="cls-1"/>
        <path id="패스_4046" d="M520.555 514.291q.111.922.135 1.868-.024-.945-.135-1.868z" class="cls-1"/>
        <path id="패스_4047" d="M517.516 505.855a19.906 19.906 0 0 1 2.728 6.584 19.879 19.879 0 0 0-2.728-6.584z" class="cls-1"/>
        <path id="패스_4048" d="M515.366 503.087c.345.373.672.763.988 1.161-.317-.398-.642-.789-.988-1.161z" class="cls-1"/>
        <path id="패스_4049" d="M520.69 516.159q-.024-.945-.135-1.868c-.006-.057-.02-.111-.027-.168-.072-.558-.159-1.112-.276-1.655l-.008-.029a19.906 19.906 0 0 0-2.728-6.584l-.025-.036q-.468-.721-.993-1.4c-.046-.059-.1-.113-.144-.172-.316-.4-.643-.788-.988-1.161-.1-.113-.218-.215-.324-.324-.3-.307-.6-.613-.913-.9-.179-.163-.371-.311-.556-.467-.257-.217-.511-.438-.779-.643s-.547-.386-.823-.576c-.2-.137-.4-.283-.6-.413-.358-.226-.729-.431-1.1-.634-.137-.075-.268-.158-.407-.23-.446-.231-.906-.438-1.371-.635-.073-.031-.143-.068-.216-.1-.522-.214-1.057-.4-1.6-.574-.021-.006-.041-.015-.061-.021a19.879 19.879 0 0 0-3.542-.748 7.944 7.944 0 0 0 .635-2.88c0-.09.014-.178.014-.269v-10c0-.191-.016-.377-.029-.564a8.06 8.06 0 0 0-7.971-7.436h-7v-8c0-.191-.016-.377-.029-.564a8.06 8.06 0 0 0-7.971-7.436h-12a8.063 8.063 0 0 0-8 7.872v8.128h-52v-8c0-.191-.016-.377-.029-.564a8.06 8.06 0 0 0-7.971-7.436h-53a8.067 8.067 0 0 0-8 8v8h-13a8.067 8.067 0 0 0-8 8v10a7.949 7.949 0 0 0 .589 3h-5.589a20.267 20.267 0 0 0-2.043.1 20.028 20.028 0 0 0-17.957 19.9v155.853H97.5v-46.751c-.007-5.985-4.592-10.862-10.221-10.87h-34.56c-5.628.008-10.212 4.885-10.217 10.872v46.749H-1.28c-10.386.012-18.847 9.025-18.859 20.092v366.468c.012 11.064 8.473 20.078 18.859 20.091h306.719c8.9-.011 16.372-6.641 18.338-15.5h31.217v-1h-31.018c.063-.371.118-.745.162-1.122a21.371 21.371 0 0 0 .161-2.468v-67.894c-.338-.185-.666-.385-1-.576v68.467c-.013 10.515-8.025 19.079-17.861 19.092H-1.278c-9.837-.013-17.849-8.577-17.861-19.092V692.618c.012-10.516 8.024-19.081 17.86-19.093H43.5v-47.749c.005-5.435 4.14-9.864 9.218-9.872h34.56c5.078.008 9.215 4.436 9.222 9.871v47.75h208.937c9.837.012 17.849 8.577 17.862 19.092v145.251q.5-.7 1-1.393V692.616a20.938 20.938 0 0 0-2.727-10.328 18.681 18.681 0 0 0-16.134-9.763h-10.721V516.674a19.021 19.021 0 0 1 19-19h187a19.022 19.022 0 0 1 19 19v527a19.022 19.022 0 0 1-19 19h-54.633c.079.332.159.664.226 1h54.407a20.015 20.015 0 0 0 19.987-19.755c0-.082.013-.162.013-.245v-527c0-.174-.017-.342-.027-.515zm-58.973-48.485a7.008 7.008 0 0 1 7-7h12a7.008 7.008 0 0 1 7 7v8h-26zm-121 0a7.008 7.008 0 0 1 7-7h53a7.008 7.008 0 0 1 7 7v8h-67zm162 26a6.948 6.948 0 0 1-.717 3.065c-.427-.027-.85-.065-1.283-.065H320.4a6.941 6.941 0 0 1-.685-3v-10a7.008 7.008 0 0 1 7-7h169a7.008 7.008 0 0 1 7 7z" class="cls-2"/>
        <path id="패스_4050" d="M358.995 1063.674h28.718c.067-.336.147-.668.226-1h-28.944z" class="cls-2"/>
        <rect id="사각형_1569" width="34" height="39" class="cls-3" rx="6" transform="translate(388.716 547.674)"/>
        <rect id="사각형_1570" width="34" height="39" class="cls-4" rx="6" transform="translate(388.716 709.674)"/>
        <rect id="사각형_1571" width="39" height="39" class="cls-3" rx="6" transform="translate(329.716 548.674)"/>
        <rect id="사각형_1572" width="27" height="39" class="cls-3" rx="6" transform="translate(442.717 548.674)"/>
        <rect id="사각형_1573" width="27" height="39" class="cls-3" rx="6" transform="translate(442.717 710.674)"/>
        <rect id="사각형_1574" width="34" height="39" class="cls-3" rx="6" transform="translate(388.716 601.674)"/>
        <rect id="사각형_1575" width="39" height="39" class="cls-4" rx="6" transform="translate(329.716 602.674)"/>
        <rect id="사각형_1576" width="27" height="39" class="cls-3" rx="6" transform="translate(442.717 602.674)"/>
        <rect id="사각형_1577" width="34" height="39" class="cls-4" rx="6" transform="translate(388.716 655.674)"/>
        <path id="패스_4051" d="M413.69 856.674h3.026a6 6 0 0 0 6-6v-27a6 6 0 0 0-6-6h-22a6 6 0 0 0-5.91 5c9.356 7.326 17.827 19.726 24.884 34z" class="cls-3"/>
        <rect id="사각형_1578" width="27" height="39" class="cls-4" rx="6" transform="translate(442.717 817.674)"/>
        <rect id="사각형_1579" width="27" height="39" class="cls-4" rx="6" transform="translate(442.717 876.674)"/>
        <path id="패스_4052" d="M362.716 656.674h-27a6 6 0 0 0-6 6v19.614h32.6a12.451 12.451 0 0 1 6.4 1.826v-21.44a6 6 0 0 0-6-6z" class="cls-4"/>
        <rect id="사각형_1580" width="27" height="39" class="cls-3" rx="6" transform="translate(442.717 656.674)"/>
        <path id="패스_4053" d="M-20.139 849.113v-30.167c-9.588-12.859-20.537-21.361-32.168-21.361a25.544 25.544 0 0 0-8.545 1.52c15.919 5.621 30.136 26.189 40.713 50.008z" class="cls-5"/>
        <path id="패스_4054" d="M-60.976 992.683a68.973 68.973 0 0 0 8.639.567 68.064 68.064 0 0 0 32.2-8.035v-12.98a68.16 68.16 0 0 1-40.839 20.448z" class="cls-5"/>
        <path id="패스_4055" d="M-20.139 849.113c-10.577-23.819-24.794-44.387-40.713-50.008a25.545 25.545 0 0 0-8.546-1.52c-37.757 0-68.363 89.535-68.363 127.267a68.367 68.367 0 0 0 68.366 68.366v-76.861a2.131 2.131 0 0 1-1.511-.625l-27.94-27.94a2.138 2.138 0 0 1 0-3.021 2.137 2.137 0 0 1 3.021 0l26.43 26.429v-26.064A2.136 2.136 0 0 1-67.261 883a2.135 2.135 0 0 1 2.136 2.134v107.937c1.4-.086 2.776-.219 4.146-.388a68.16 68.16 0 0 0 40.837-20.448z" class="cls-6"/>
        <path id="패스_4056" d="M-65.122 885.134A2.135 2.135 0 0 0-67.258 883a2.136 2.136 0 0 0-2.134 2.136V911.2l-26.428-26.429a2.137 2.137 0 0 0-3.021 0 2.138 2.138 0 0 0 0 3.021l27.94 27.94a2.131 2.131 0 0 0 1.511.625v159.221a2.135 2.135 0 0 0 2.135 2.136 2.135 2.135 0 0 0 2.135-2.137V885.134z" class="cls-7"/>
        <path id="패스_4057" d="M135.083 672.525V636.3c0-5.577-3.51-10.093-7.835-10.1H99.383a6.2 6.2 0 0 0-1.883.308v46.021z" class="cls-8"/>
        <path id="패스_4058" d="M377.119 1043.234v-44.495a63.4 63.4 0 0 1-14.131-.223q-1.979.246-3.993.373v62.663h3.324c8.17-.013 14.791-8.207 14.8-18.318z" class="cls-8"/>
        <path id="패스_4059" d="M355 815.674a23.9 23.9 0 0 1 7.994 1.422 23.9 23.9 0 0 1 7.995-1.422 23.312 23.312 0 0 1 6.134.847V700.6c0-7.271-3.44-13.532-8.4-16.49a12.451 12.451 0 0 0-6.4-1.826h-40.751a20.938 20.938 0 0 1 2.727 10.328v143.863c9.112-12.487 19.572-20.801 30.701-20.801z" class="cls-8"/>
        <path id="패스_4060" d="M354.994 999.022c-.119 0-.235.007-.354.007a63.658 63.658 0 0 1-30.341-7.837v67.892a21.371 21.371 0 0 1-.161 2.468h30.856z" class="cls-8"/>
        <path id="패스_4061" fill="#e9e9e9" d="M291.046 934.723c0-23.769 12.985-69.512 32.253-96.855V692.617c-.013-10.515-8.025-19.08-17.862-19.092H96.5v-47.75c-.007-5.435-4.144-9.863-9.222-9.871H52.72c-5.078.008-9.213 4.437-9.218 9.872v47.749H-1.279c-9.836.012-17.848 8.577-17.86 19.093v366.466c.012 10.515 8.024 19.079 17.861 19.092h306.716c9.836-.013 17.848-8.577 17.861-19.092v-68.468a63.916 63.916 0 0 1-32.253-55.893zM59.716 991.84a4.5 4.5 0 0 1-4.583 4.412H20.3a4.5 4.5 0 0 1-4.583-4.412v-51.176a4.506 4.506 0 0 1 4.583-4.412h34.833a4.506 4.506 0 0 1 4.583 4.412zm0-90.289a4.5 4.5 0 0 1-4.583 4.412H20.3a4.5 4.5 0 0 1-4.583-4.412v-51.176a4.506 4.506 0 0 1 4.583-4.412h34.833a4.506 4.506 0 0 1 4.583 4.412zm0-90.289a4.5 4.5 0 0 1-4.583 4.412H20.3a4.5 4.5 0 0 1-4.583-4.412v-51.176a4.506 4.506 0 0 1 4.583-4.412h34.833a4.5 4.5 0 0 1 4.583 4.412zm64 180.578a4.5 4.5 0 0 1-4.583 4.412H84.3a4.5 4.5 0 0 1-4.583-4.412v-51.176a4.506 4.506 0 0 1 4.583-4.412h34.834a4.506 4.506 0 0 1 4.583 4.412zm0-90.289a4.5 4.5 0 0 1-4.583 4.412H84.3a4.5 4.5 0 0 1-4.583-4.412v-51.176a4.506 4.506 0 0 1 4.583-4.412h34.834a4.506 4.506 0 0 1 4.583 4.412zm0-90.289a4.5 4.5 0 0 1-4.583 4.412H84.3a4.5 4.5 0 0 1-4.583-4.412v-51.176a4.506 4.506 0 0 1 4.583-4.412h34.834a4.5 4.5 0 0 1 4.583 4.412zm64 180.578a4.5 4.5 0 0 1-4.583 4.412H148.3a4.5 4.5 0 0 1-4.583-4.412v-51.176a4.506 4.506 0 0 1 4.583-4.412h34.834a4.506 4.506 0 0 1 4.583 4.412zm0-90.289a4.5 4.5 0 0 1-4.583 4.412H148.3a4.5 4.5 0 0 1-4.583-4.412v-51.176a4.506 4.506 0 0 1 4.583-4.412h34.834a4.506 4.506 0 0 1 4.583 4.412zm0-90.289a4.5 4.5 0 0 1-4.583 4.412H148.3a4.5 4.5 0 0 1-4.583-4.412v-51.176a4.506 4.506 0 0 1 4.583-4.412h34.834a4.5 4.5 0 0 1 4.583 4.412zm64 180.578a4.5 4.5 0 0 1-4.583 4.412H212.3a4.5 4.5 0 0 1-4.583-4.412v-51.176a4.506 4.506 0 0 1 4.583-4.412h34.834a4.506 4.506 0 0 1 4.583 4.412zm0-90.289a4.5 4.5 0 0 1-4.583 4.412H212.3a4.5 4.5 0 0 1-4.583-4.412v-51.176a4.506 4.506 0 0 1 4.583-4.412h34.834a4.506 4.506 0 0 1 4.583 4.412zm0-90.289a4.5 4.5 0 0 1-4.583 4.412H212.3a4.5 4.5 0 0 1-4.583-4.412v-51.176a4.506 4.506 0 0 1 4.583-4.412h34.834a4.5 4.5 0 0 1 4.583 4.412z"/>
        <path id="패스_4062" d="M55.133 755.674H20.3a4.506 4.506 0 0 0-4.583 4.412v51.176a4.5 4.5 0 0 0 4.583 4.412h34.833a4.5 4.5 0 0 0 4.583-4.412v-51.176a4.5 4.5 0 0 0-4.583-4.412z" class="cls-10"/>
        <path id="패스_4063" d="M119.133 755.674H84.3a4.506 4.506 0 0 0-4.583 4.412v51.176a4.5 4.5 0 0 0 4.583 4.412h34.834a4.5 4.5 0 0 0 4.583-4.412v-51.176a4.5 4.5 0 0 0-4.584-4.412z" class="cls-10"/>
        <path id="패스_4064" d="M183.133 755.674H148.3a4.506 4.506 0 0 0-4.583 4.412v51.176a4.5 4.5 0 0 0 4.583 4.412h34.834a4.5 4.5 0 0 0 4.583-4.412v-51.176a4.5 4.5 0 0 0-4.584-4.412z" class="cls-10"/>
        <path id="패스_4065" d="M247.133 755.674H212.3a4.506 4.506 0 0 0-4.583 4.412v51.176a4.5 4.5 0 0 0 4.583 4.412h34.834a4.5 4.5 0 0 0 4.583-4.412v-51.176a4.5 4.5 0 0 0-4.584-4.412z" class="cls-10"/>
        <path id="패스_4066" d="M55.133 845.963H20.3a4.506 4.506 0 0 0-4.583 4.412v51.176a4.5 4.5 0 0 0 4.583 4.412h34.833a4.5 4.5 0 0 0 4.583-4.412v-51.176a4.506 4.506 0 0 0-4.583-4.412z" class="cls-10"/>
        <path id="패스_4067" d="M55.133 936.252H20.3a4.506 4.506 0 0 0-4.583 4.412v51.176a4.5 4.5 0 0 0 4.583 4.412h34.833a4.5 4.5 0 0 0 4.583-4.412v-51.176a4.506 4.506 0 0 0-4.583-4.412z" class="cls-10"/>
        <path id="패스_4068" d="M119.133 845.963H84.3a4.506 4.506 0 0 0-4.583 4.412v51.176a4.5 4.5 0 0 0 4.583 4.412h34.834a4.5 4.5 0 0 0 4.583-4.412v-51.176a4.506 4.506 0 0 0-4.584-4.412z" class="cls-10"/>
        <path id="패스_4069" d="M119.133 936.252H84.3a4.506 4.506 0 0 0-4.583 4.412v51.176a4.5 4.5 0 0 0 4.583 4.412h34.834a4.5 4.5 0 0 0 4.583-4.412v-51.176a4.506 4.506 0 0 0-4.584-4.412z" class="cls-10"/>
        <path id="패스_4070" d="M183.133 845.963H148.3a4.506 4.506 0 0 0-4.583 4.412v51.176a4.5 4.5 0 0 0 4.583 4.412h34.834a4.5 4.5 0 0 0 4.583-4.412v-51.176a4.506 4.506 0 0 0-4.584-4.412z" class="cls-10"/>
        <path id="패스_4071" d="M247.133 845.963H212.3a4.506 4.506 0 0 0-4.583 4.412v51.176a4.5 4.5 0 0 0 4.583 4.412h34.834a4.5 4.5 0 0 0 4.583-4.412v-51.176a4.506 4.506 0 0 0-4.584-4.412z" class="cls-10"/>
        <path id="패스_4072" d="M183.133 936.252H148.3a4.506 4.506 0 0 0-4.583 4.412v51.176a4.5 4.5 0 0 0 4.583 4.412h34.834a4.5 4.5 0 0 0 4.583-4.412v-51.176a4.506 4.506 0 0 0-4.584-4.412z" class="cls-10"/>
        <path id="패스_4073" d="M247.133 936.252H212.3a4.506 4.506 0 0 0-4.583 4.412v51.176a4.5 4.5 0 0 0 4.583 4.412h34.834a4.5 4.5 0 0 0 4.583-4.412v-51.176a4.506 4.506 0 0 0-4.584-4.412z" class="cls-10"/>
        <path id="패스_4074" fill="#e6e6e6" d="M377.119 998.739a63.96 63.96 0 0 0 57.817-63.3v-.711c0-18.894-8.206-51.666-21.246-78.049-7.057-14.275-15.528-26.676-24.884-34a33.358 33.358 0 0 0-11.687-6.156 23.312 23.312 0 0 0-6.134-.847 23.9 23.9 0 0 0-7.995 1.422c31.546 11.139 55.956 85.033 55.956 117.627v.711a63.95 63.95 0 0 1-55.958 63.082 63.4 63.4 0 0 0 14.131.223z"/>
        <path id="패스_4075" d="M354.994 999.022V925.6l-25.548-25.549a2 2 0 1 1 2.828-2.823l22.721 22.721v-22.376a2 2 0 0 1 4 0v101.316q2.015-.124 3.993-.373a63.95 63.95 0 0 0 55.958-63.082v-.711c0-32.594-24.41-106.488-55.956-117.627a23.9 23.9 0 0 0-7.99-1.422c-11.125 0-21.585 8.314-30.7 20.8q-.5.689-1 1.393c-19.268 27.343-32.253 73.086-32.253 96.855a63.916 63.916 0 0 0 32.253 55.894c.334.191.662.391 1 .576a63.658 63.658 0 0 0 30.341 7.837c.118 0 .234-.007.353-.007z" class="cls-12"/>
        <path id="패스_4076" fill="#cbcbcb" d="M358.995 1062.674v-165.1a2 2 0 0 0-4 0v22.379l-22.721-22.721a2 2 0 1 0-2.828 2.823l25.548 25.545v150.114a2 2 0 0 0 4 0v-12.039z"/>
        <path id="패스_4077" fill="#c1c1c1" d="M446.084 1062.674a29.887 29.887 0 0 0-58.145 0c-.079.332-.159.664-.226 1a29.976 29.976 0 0 0-.591 5.934H446.9a29.978 29.978 0 0 0-.592-5.934c-.065-.336-.145-.668-.224-1zm-28.26 6.127a.809.809 0 0 1-1.618 0v-5.044l-9.413-8.076a.809.809 0 0 1 1.052-1.228l8.359 7.172v-8.581a.809.809 0 0 1 1.618 0z"/>
        <path id="패스_4078" d="M417.017 1052.24a.809.809 0 0 0-.811.806v8.581l-8.359-7.172a.809.809 0 0 0-1.052 1.228l9.413 8.076v5.044a.809.809 0 0 0 1.618 0v-15.755a.808.808 0 0 0-.809-.808z" class="cls-12"/>
        <path id="패스_4079" d="M-126.185 1037.718a29.891 29.891 0 0 0-29.891 29.89h59.781a29.89 29.89 0 0 0-29.89-29.89zm6.534 15.963l-9.413 8.076v5.044a.807.807 0 0 1-.807.807.807.807 0 0 1-.807-.807v-5.364V1051.047a.808.808 0 0 1 .807-.807.807.807 0 0 1 .807.807v8.581l8.36-7.174a.808.808 0 0 1 1.14.087.808.808 0 0 1-.087 1.14z" class="cls-7"/>
        <path id="패스_4080" d="M-120.7 1052.454l-8.36 7.174v-8.581a.807.807 0 0 0-.807-.807.808.808 0 0 0-.807.807V1066.801a.807.807 0 0 0 .807.807.807.807 0 0 0 .807-.807v-5.044l9.413-8.076a.808.808 0 0 0 .087-1.14.808.808 0 0 0-1.14-.087z" class="cls-6"/>
    </g>
</svg>
